<?xml version="1.0" encoding="utf-8"?>
<!-- Generator: Adobe Illustrator 18.1.1, SVG Export Plug-In . SVG Version: 6.00 Build 0)  -->
<svg version="1.1" id="Layer_1" xmlns="http://www.w3.org/2000/svg" xmlns:xlink="http://www.w3.org/1999/xlink" x="0px" y="0px"
	 viewBox="-138 153 335 487" enable-background="new -138 153 335 487" xml:space="preserve">
<path fill="none" stroke="#62A2FF" stroke-linecap="square" stroke-linejoin="bevel" stroke-miterlimit="8" stroke-dasharray="5" d="
	M-37.8,215.8c106,38.9,155.7,100.8,51.9,168c-27.5,17.8-73.3,25.2-65.7,66c12.4,65.7,119.1,97.1,170.6,114.1"/>
<path fill="none" stroke="#C7B299" stroke-linecap="square" stroke-linejoin="bevel" stroke-miterlimit="8" stroke-opacity="0.65" d="
	M-43.7,216.6c36.3,4.5,81.3,13.7,108,40.7c42.2,42.8-13.9,71.3-42.9,93.1c-22.1,16.6-86.8,56.7-69.1,91.1
	c32.1,62.4,92.9,108.1,161.3,123.1"/>
<path fill="#EADA96" d="M127.3,160.5c0.3,0.2-5.3,4.6-6.4,11.8c0,0,3.6-0.4,4.3,2.5c0.8,3.8-4.7,8-8.3,8.4c-5.2,0.5-8.7-3.5-8.7-6
	s2.7-5.2,4.4-2.6c0,0,0.9-5.8,4.3-1.6c0,0,0.1-5.4,5.2-12.7C122.1,160.2,125.6,159.1,127.3,160.5z"/>
<path fill="#EADA96" d="M111.3,181.4c0,0-10.9,23.3,18.9,15.6c0,0,4.6-1.2,4.6-2.8c0.1-1.6-2.8-1-5.4-0.5c-2.7,0.5-19,4.6-9.8-12
	C119.6,181.8,115.1,178.6,111.3,181.4z"/>
<path fill="#B5BF8E" d="M127.5,193l1,5c0,0,11.6-2.2,10-5.3C137.2,190.1,133.6,192.3,127.5,193z"/>
<path fill="#EADA96" d="M163.7,184.4c0,0-3.2,7.8-5.5,12.2c0,0-13,0.1-21-5c0,0-3.6-12.6,4.7-27.6c8.3-15,28.9-7.3,25.4,11.5
	c0,0,4.3,0.8,1.8,5.9C166.6,186.4,163.7,184.4,163.7,184.4z"/>
<path fill="#F26531" d="M161.2,167.9c0,0-7.6,4.1-17.7,2.4c-10.1-1.7-6.6-9.6-6.3-11.7c0.3-2.1-1.6-3.6-3.1-3.7
	c0,0,15.8-4.8,28.7,1.1c12.8,5.9,5.1,9.9,5.1,9.9s9.4,1.9,1.4,10.7c0,0-3.9-4.2-8.2,4c0,0-3.4,0.4-2.8-1.1c0.7-1.5,2.3-2.9,0.1-4.5
	C156.2,173.4,157.8,171.1,161.2,167.9z"/>
<path fill="#60493B" d="M148.9,177c-0.6-0.1-1.2,0.3-1.3,0.8c-0.1,0.7,0.2,1.2,0.9,1.4c0.7,0.2,1.1-0.4,1.2-0.9
	C149.7,177.8,149.5,177.1,148.9,177z"/>
<path fill="#60493B" d="M142.8,175.4c-0.6-0.1-1.1,0.3-1.2,0.8c-0.1,0.6,0.2,1.1,0.8,1.2c0.6,0.1,1-0.3,1.1-0.8
	C143.5,176.1,143.3,175.5,142.8,175.4z"/>
<path fill="#60493B" d="M138.2,183.6c0,0,4.3,6.4,14.8,3.8C153,187.3,141.4,193.6,138.2,183.6z"/>
<linearGradient id="SVGID_1_" gradientUnits="userSpaceOnUse" x1="156.1638" y1="602.3298" x2="137.2946" y2="550.8665" gradientTransform="matrix(1 0 0 1 0 -304)">
	<stop  offset="0.5005" style="stop-color:#D6B982"/>
	<stop  offset="1" style="stop-color:#89714E"/>
</linearGradient>
<ellipse opacity="0.22" fill="url(#SVGID_1_)" enable-background="new    " cx="143.1" cy="262.7" rx="28.6" ry="2.3"/>
<path fill="#60493B" d="M161.3,226.9c-4.4,0.9-22.7,3.3-35.5-7.5C125.2,234.5,158.5,236.3,161.3,226.9z"/>
<path fill="#7B9D42" d="M125.6,219.5c12.8,10.9,30.2,8.6,35.5,7.5h0.1c1.8-5.1,3-23.5-2.4-31.7c0,0-11,1.8-21.6-3.9
	C137.2,191.6,128.6,197.5,125.6,219.5L125.6,219.5z"/>
<path fill="#60493B" d="M139.9,194.4c0,0-0.2,3.2-0.2,3.7l-7.8,10.9l1.6,7.7l6.9-4.9l2.4-13l3.4-2.6
	C146.3,196.2,143.2,192.6,139.9,194.4z"/>
<path fill="#A7B780" d="M149.5,203.9l-2.2,7.3c0,0,2.8,1.3,7,1.3c0,0,1.7-5,2-7C156.4,205.5,154.1,205.7,149.5,203.9z"/>
<path fill="#A7B780" d="M137.2,191.6c0,0,0.3,2.6,1,3.8l4.8-1.2c0,0,2.1,3.7,3.2,5.1c0,0,2.5,0.2,9.3-3.6
	C155.6,195.7,146.2,196.2,137.2,191.6z"/>
<path fill="#FFFFFF" d="M154.2,205.3l0.8,0.2c0,0-0.5,2-0.5,2.3s0.4,0.7,1-2.3C156.2,202.5,155.8,199.3,154.2,205.3z"/>
<path fill="#EADA96" d="M164.9,194.1c-6.5,0.7-7.8,5,0.3,4c0,0,10.8-1.7,3.3,7.3c0,0-2.2-0.7-5.4-0.1l0.4,2.3c0,0,1.6-0.6,3.4,0.5
	c0,0,1.5,4.5-1.9,10.3c0,0,0.6,0.9,1.8,1.7c0.4-0.8,2-4.5,2.1-7.9c0,0,0.2,4-1.7,8.1c0.6,0.4,1.4,0.7,2.2,0.9
	c0.3-0.7,1.6-3.6,1.2-8.5c0,0,0.9,4.9-0.8,8.5c0.8,0.1,1.6,0.2,2.5,0.1c0,0,1.6-3.8,0-11.3C172.4,210,186.4,191.9,164.9,194.1z"/>
<path fill="#B5BF8E" d="M165.1,198.6c0,0,0-2.6-0.8-4.7c0,0-6.9,0.3-6.9,2.5C157.4,198.7,160.8,198.9,165.1,198.6z"/>
<path fill="#E55A2E" d="M125.4,251.1c-0.6,0.1-10.4,1.8-12.5,6.6c0,0,10.5,3.6,20.6-1.1C133.5,256.6,132.5,250.7,125.4,251.1z"/>
<path fill="#60493B" d="M128.7,224.8c-0.9,0.7-3,26.2-3,26.2s0.6,4.7,6.9,3.3c0,0-2.4-15.8-1.1-28.7
	C131.5,225.7,131,222.9,128.7,224.8z"/>
<path fill="#E55A2E" d="M169.7,254.5c-2.4-0.1-5.3,0.9-5.6,4.9c0,0,7.1,7.1,15.4,1.9C179.5,261.3,178.3,255.1,169.7,254.5z"/>
<path fill="#60493B" d="M170.8,254.5c0,0-0.3,3.8-6.5,3.3c0,0-4.4-14.8-10.5-27c0,0-0.8-1.1,0.3-1.6c1.1-0.5,1.7-0.2,2.4,0.7
	C157.2,230.7,163.8,241.2,170.8,254.5z"/>
<path fill="#EADA96" d="M159.8,421.5c0,0-3.3,7.8-5.5,12.3c0,0-13.1,0.1-21.1-5.1c0,0-3.6-12.7,4.8-27.8
	c8.4-15.1,29.1-7.4,25.6,11.6c0,0,4.3,0.8,1.8,5.9C162.8,423.5,159.8,421.5,159.8,421.5z"/>
<path fill="#F26531" d="M157.3,404.8c0,0-7.7,4.1-17.8,2.4c-10.1-1.7-6.7-9.7-6.4-11.8c0.3-2.1-1.6-3.6-3.1-3.8c0,0,16-4.9,28.9,1.1
	c12.9,6,5.1,10,5.1,10s9.5,1.9,1.4,10.8c0,0-3.9-4.2-8.3,4.1c0,0-3.5,0.4-2.8-1.1s2.4-2.9,0.1-4.5
	C152.3,410.4,153.9,408,157.3,404.8z"/>
<path fill="#60493B" d="M144.9,414c-0.6-0.2-1.2,0.3-1.3,0.8c-0.1,0.7,0.2,1.2,0.9,1.4s1.1-0.4,1.2-0.9
	C145.7,414.8,145.5,414.1,144.9,414z"/>
<path fill="#60493B" d="M140.8,419.9c-2.1-0.5-4.2,1-4.4,2.8c-0.3,2.2,0.7,4,3,4.6c2.3,0.5,3.8-1.2,3.9-2.9
	C143.3,422.6,142.7,420.3,140.8,419.9z"/>
<path fill="#60493B" d="M138.8,412.4c-0.6-0.1-1.1,0.3-1.2,0.8c-0.1,0.6,0.2,1.1,0.8,1.3c0.6,0.1,1-0.3,1.1-0.8
	C139.5,413.1,139.3,412.5,138.8,412.4z"/>
<path fill="#60493B" d="M157.4,464.3c-4.5,0.9-22.9,3.4-35.8-7.6C121.1,472,154.6,473.7,157.4,464.3z"/>
<path fill="#7B9D42" d="M121.5,456.8c12.9,11,30.4,8.6,35.8,7.6h0.1c1.8-5.2,3.1-23.7-2.5-31.9c0,0-11,1.8-21.7-3.9
	C133.2,428.7,124.4,434.6,121.5,456.8L121.5,456.8z"/>
<path fill="#60493B" d="M135.9,431.5c0,0-0.2,3.3-0.2,3.7l-7.8,11l1.6,7.8l6.9-5l2.4-13.1l3.5-2.7
	C142.3,433.3,139.2,429.7,135.9,431.5z"/>
<path fill="#A7B780" d="M145.6,441.1l-2.2,7.4c0,0,2.8,1.3,7.1,1.3c0,0,1.7-5,2-7.1C152.5,442.7,150.2,442.9,145.6,441.1z"/>
<path fill="#A7B780" d="M133.2,428.7c0,0,0.3,2.6,1,3.8l4.9-1.2c0,0,2.1,3.7,3.2,5.1c0,0,2.5,0.2,9.4-3.6
	C151.7,432.8,142.2,433.3,133.2,428.7z"/>
<path fill="#FFFFFF" d="M150.3,442.5l0.8,0.2c0,0-0.5,2-0.5,2.3s0.4,0.7,1-2.3C152.3,439.6,151.9,436.5,150.3,442.5z"/>
<path fill="#EADA96" d="M158.8,439.4c-5.6-3.5-4.8-8,2.1-3.5c0,0,9,6.4,6.2-5.1c0,0-2.3-0.3-5-2.3l1.4-1.9c0,0,1.2,1.2,3.3,1.1
	c0,0,3.3-3.4,2.9-10.2c0,0,0.9-0.5,2.4-0.7c0,0.9-0.2,5-1.6,8.1c0,0,1.9-3.6,2.1-8.1c0.7,0,1.5,0,2.4,0.2c0,0.7-0.2,4-2.7,8.2
	c0,0,3-4,3.1-8.1c0.7,0.2,1.5,0.5,2.3,1c0,0-0.2,4.1-5.1,10.2C172.7,428.3,177.3,450.9,158.8,439.4z"/>
<path fill="#A7B780" d="M158.4,439.7c0,0,1.7-2,2.5-4.1c0,0-5.5-4.3-6.9-2.6C152.5,434.7,154.9,437.1,158.4,439.7z"/>
<path fill="#E55A2E" d="M121.2,488.6c-0.6,0.1-10.5,1.8-12.5,6.7c0,0,10.5,3.6,20.7-1.1C129.4,494.2,128.5,488.3,121.2,488.6z"/>
<path fill="#60493B" d="M124.6,462.1c-0.9,0.7-3.1,26.4-3.1,26.4s0.6,4.8,6.9,3.4c0,0-2.5-15.9-1.1-28.9
	C127.4,463,126.9,460.2,124.6,462.1z"/>
<path fill="#E55A2E" d="M168.8,492c-2.7-0.1-5.8,0.9-6.3,4.9c0,0,7.9,7.2,17.1,1.9C179.6,498.9,178.4,492.7,168.8,492z"/>
<path fill="#60493B" d="M170,492.1c0,0-0.3,3.9-7.2,3.3c0,0-4.9-14.9-11.7-27.2c0,0-0.9-1.1,0.3-1.7c1.2-0.6,1.9-0.2,2.7,0.7
	C154.9,468.1,162.2,478.7,170,492.1z"/>
<path fill="#5091CD" d="M107.6,425.2c0,0-2.4,10.3-7,15.3c0,0,1.2,2.2,5,3c0,0,4.7-5.8,7.9-17.2L107.6,425.2z"/>
<path fill="#B5D5F0" d="M91.7,396.1c0,0,20.9,17.6,34.5,22.8c0,0,4.8,5.6-2.7,7.1c0,0-16.3,1.3-43.2,6.3
	C80.2,432.3,81,405.9,91.7,396.1z"/>
<path fill="#FFFFFF" d="M90.4,395.4c0,0-9.5,0-13.4,15.2s3.3,21.7,3.3,21.7s8.9,0.5,12.5-17.8C96.5,396,90.4,395.4,90.4,395.4z"/>
<path fill="#5091CD" d="M88.1,406.5l-4.6,0.4l-3.4,12.4l3.7,3.1c0,0,4,0.4,5.7-7.6C91.1,407.3,88.1,406.5,88.1,406.5z"/>
<path fill="#B5D5F0" d="M83.4,406.9c0,0-3.2,0-4.5,5.1c-1.3,5.1,1.1,7.3,1.1,7.3s3.5,0.6,4.7-5.6C86,407.5,83.4,406.9,83.4,406.9z"
	/>
<path fill="#EADA96" d="M109.6,432.4c0,0,6.2,3.4,18.7-1.3c0,0,6.4-0.4,0.2,2.9s-10.8,5.3-21.4,3.9L109.6,432.4z"/>
<path fill="#EADA96" d="M103.1,437.8c0,0,2.1,1.8,6.4,2.6c0.3-0.5,0.6-1,0.9-1.6c-1.7-0.5-4.6-1.5-5.9-3.1c0,0,2,1.7,6.1,2.5
	c0.3-0.8,0.6-1.7,0.7-2.7c0,0-4.8-0.4-6.2-2.8l0.5-1.1c0,0-1.4-0.6-2.5,0c0,0-4.3,2.8-2.8,6.5c1.5,3.7,7.4,4.4,7.4,4.4
	s0.6-0.5,1.4-1.5C107.4,440.5,104.5,439.5,103.1,437.8z"/>
<path fill="#EADA96" d="M114.3,434.1c0,0,0.8-1.8-0.7-2.7c-1.5-0.9-0.8-1.6-1.2-2.4c0,0-1.8,0-2.3,0.8c0,0,0.1,1.6,0.9,2.4
	c0.8,0.7-1.4,2.5,1.7,3.1C112.8,435.3,113.9,435,114.3,434.1z"/>
<path fill="#5091CD" d="M126.1,418.9c-1.1-0.4-2.3-1-3.5-1.5c1.1,0.9,1.8,2.8,0.9,5.1c-1,2.4-3.1,3.5-4.5,4c2.9-0.3,4.5-0.4,4.5-0.4
	C130.9,424.6,126.1,418.9,126.1,418.9z"/>
<path fill="#5091CD" d="M80.2,432.3c0,0,8.9,0.5,12.5-17.8c3.7-18.6-2.4-19.1-2.4-19.1s-9.5,0-13.4,15.2
	C73,425.8,80.2,432.3,80.2,432.3z M78.1,410.9c1.5-5.8,4.1-10.2,7.5-12.5c2.3-1.5,4.2-1.8,4.7-1.8c0.2,0.1,0.7,0.3,1.2,1
	c1,1.5,2.4,5.7,0.2,16.7c-2.9,14.7-9.3,16.6-11,16.8c-0.5-0.6-1.7-2.1-2.5-4.5C77.1,423.6,76.2,418.4,78.1,410.9z"/>
<path fill="#EADA96" d="M-77.5,310.6c0,0-5.8,4.8-18,1.4c0,0-2-1-2.6,0.2c-0.6,1.2,7.1,7.8,14.9,7.4c9.8-0.5,11.6-3.3,11.6-3.3
	S-73.1,307-77.5,310.6z"/>
<path fill="#EADA96" d="M-121,303.8c0,0,2.8,6.7,4.8,10.5c0,0,11.2,0.1,18.1-4.4c0,0,3.1-10.9-4.1-23.8s-25-6.3-21.9,9.9
	c0,0-3.7,0.7-1.5,5.1S-121,303.8-121,303.8z"/>
<path fill="#F26531" d="M-118.9,289.5c0,0,6.6,3.5,15.3,2.1c8.7-1.5,5.7-8.3,5.4-10.1s1.4-3.1,2.7-3.2c0,0-13.7-4.2-24.8,1
	c-11.1,5.1-4.4,8.6-4.4,8.6s-8.1,1.6-1.2,9.2c0,0,3.4-3.6,7.1,3.5c0,0,3,0.4,2.4-1c-0.6-1.3-2-2.5-0.1-3.9
	C-114.6,294.3-116,292.2-118.9,289.5z"/>
<path fill="#60493B" d="M-108.2,297.3c0.5-0.1,1.1,0.3,1.1,0.7c0.1,0.6-0.2,1-0.8,1.2c-0.6,0.2-1-0.3-1-0.7
	C-108.9,298-108.7,297.4-108.2,297.3z"/>
<path fill="#60493B" d="M-103,296c0.5-0.1,1,0.2,1,0.7c0.1,0.5-0.2,1-0.7,1.1c-0.5,0.1-0.9-0.3-0.9-0.7
	C-103.6,296.6-103.4,296.1-103,296z"/>
<path fill="#60493B" d="M-99,303c0,0-3.7,5.5-12.8,3.2C-111.8,306.2-101.8,311.7-99,303z"/>
<path fill="#60493B" d="M-118.9,340.4c3.8,0.8,19.6,2.9,30.7-6.5C-87.8,347-116.5,348.6-118.9,340.4z"/>
<path fill="#7B9D42" d="M-88.2,334.1c-11,9.4-26.1,7.4-30.7,6.5c0,0,0,0-0.1,0c-1.6-4.4-2.6-20.3,2.1-27.3c0,0,9.5,1.6,18.6-3.3
	C-98.2,309.9-90.7,315-88.2,334.1L-88.2,334.1z"/>
<path fill="#60493B" d="M-100.5,312.4c0,0,0.2,2.8,0.2,3.2l6.7,9.4l-1.4,6.7l-6-4.2l-2-11.3l-3-2.3
	C-106,313.9-103.3,310.8-100.5,312.4z"/>
<path fill="#A7B780" d="M-108.8,320.6l1.9,6.3c0,0-2.4,1.1-6.1,1.1c0,0-1.5-4.3-1.7-6.1C-114.8,322-112.8,322.1-108.8,320.6z"/>
<path fill="#A7B780" d="M-98.2,309.9c0,0-0.2,2.2-0.8,3.3l-4.2-1.1c0,0-1.8,3.2-2.7,4.4c0,0-2.2,0.2-8.1-3.1
	C-114,313.5-105.9,313.9-98.2,309.9z"/>
<path fill="#FFFFFF" d="M-112.8,321.7l-0.7,0.1c0,0,0.4,1.7,0.4,2c0,0.2-0.3,0.6-0.9-1.9S-114.3,316.6-112.8,321.7z"/>
<path fill="#EADA96" d="M-122.4,315c5.3-2,7.9,0.8,1.4,3.2c0,0-9,2.9,0.3,6.9c0,0,1.4-1.4,4.1-2.2l0.6,2c0,0-1.5,0.2-2.5,1.7
	c0,0,0.6,4.1,5.4,7.2c0,0-0.1,0.9-0.8,2c-0.6-0.5-3.3-2.7-4.7-5.3c0,0,1.4,3.2,4.5,5.6c-0.3,0.5-0.8,1-1.4,1.5
	c-0.5-0.4-2.6-2.2-4.2-6.1c0,0,1.2,4.2,3.9,6.3c-0.5,0.4-1.2,0.8-1.9,1c0,0-2.7-2.3-4.4-8.7C-122,330.1-139.9,321.7-122.4,315z"/>
<path fill="#A7B780" d="M-121.6,319.6c0,0-1.2-2.6-1.4-5c0,0,6.2-3.1,7.2-0.9C-114.8,315.9-117.6,317.7-121.6,319.6z"/>
<path fill="#A7B780" d="M-90.8,313.5c0,0-1.4,2.3-3.4,3.6c0,0-5.9-4.5-4.6-6.5S-94.5,310.5-90.8,313.5z"/>
<path fill="#E55A2E" d="M-87.9,361.3c0.5,0.1,9,1.6,10.8,5.7c0,0-9,3.1-17.8-1C-95,366.1-94.1,361-87.9,361.3z"/>
<path fill="#60493B" d="M-90.8,338.6c0.7,0.6,2.6,22.7,2.6,22.7s-0.5,4.1-5.9,2.9c0,0,2.1-13.7,0.9-24.8
	C-93.2,339.4-92.8,337-90.8,338.6z"/>
<path fill="#E55A2E" d="M-128.7,364.2c2.3-0.1,5,0.8,5.4,4.2c0,0-6.8,6.1-14.7,1.7C-138,370.1-136.9,364.8-128.7,364.2z"/>
<path fill="#60493B" d="M-129.8,364.3c0,0,0.3,3.3,6.2,2.8c0,0,4.2-12.8,10-23.3c0,0,0.8-0.9-0.3-1.4c-1-0.5-1.6-0.2-2.3,0.6
	C-116.8,343.7-123,352.8-129.8,364.3z"/>
<path fill="#5F6062" d="M-82,314.4c6.3-3.9,10.7-6.7,17-10.5c0.1,0-2.4-6.6,0.9-9.9c3.4-3.2,11.9-1.4,11.8-1.5
	c-2.2,1.2-4.3,2.5-6.5,3.7c0.7,1.8,0.7,3.8,1.1,5.8c1.8,0.8,4,1.7,5.5,2.6c2-1.6,4-3.2,6.1-4.8c0.2-0.2-1,8.9-6.4,10.7
	c-4.5,1.6-8.4-1.4-8.7-1.8c0,0-9.4,6.8-17.8,10.7c-0.1,0,2.4,5.4,0.3,7.6c-2.2,2.2-6.3,3.8-13.2,2.6c2.6-1.7,5.2-3.4,7.8-5.3
	c-0.5-1.5-0.9-3.1-1.2-4.8c-1.6-1.1-3.1-2.2-4.4-3.4c-2.6,1.7-5.3,3.4-7.9,5.1c-0.2,0.2,1.9-8.4,5.7-10.9
	C-87.2,307.5-82.2,314.5-82,314.4z"/>
<path fill="#EADA96" d="M-65.8,314.5c0.1-0.8-3.3-4.4-3.3-4.4s-1.8,0.8-2.4,2C-71.6,312.2-66.4,317.7-65.8,314.5z"/>
<path fill="#EADA96" d="M-70.4,318.3c0.2-0.8-2.9-4.6-2.9-4.6s-1.8,0.6-2.6,1.8C-75.9,315.5-71.2,321.4-70.4,318.3z"/>
<path fill="#EADA96" d="M-67.9,316.2c0.2-1-3.8-5-3.8-5s-2,0.9-2.7,2.3C-74.4,313.6-68.5,319.8-67.9,316.2z"/>
<path fill="#EADA96" d="M-78,311.9c0,0,3.4,1,3.4-0.9c0.1-2.6,4.6-3,4.6-3l-0.8-2.2c0,0-4.7,0.5-7,1.8
	C-80.1,308.9-78,311.9-78,311.9z"/>
<polygon fill="#A55737" points="-30.4,231.3 -35.1,230.2 -35.7,234.9 -39.7,232.3 -41.8,236.6 -44.8,232.9 -48.1,236.2 -49.7,231.8 
	-54,233.8 -54.1,229.1 -58.8,229.6 -57.3,225.1 -62,224.1 -59.1,220.3 -63.2,217.9 -59.2,215.2 -62.3,211.6 -57.7,210.4 
	-59.4,205.9 -54.7,206.2 -54.8,201.5 -50.4,203.3 -49.1,198.8 -45.5,202 -42.7,198.1 -40.4,202.3 -36.5,199.5 -35.7,204.2 
	-31.1,202.9 -31.9,207.6 -27.1,207.8 -29.3,212 -24.9,213.7 -28.4,217 -24.7,220.1 -29.1,222.1 -26.6,226.2 -31.4,226.6 "/>
<g>
	<path fill="#FFFFFF" d="M-40.3,223.4h-9.3l0.2-0.8c0.2,0,0.6-0.1,1.1-0.1s0.8-0.1,1-0.2s0.4-0.2,0.6-0.4c0.2-0.2,0.3-0.4,0.4-0.7
		l1.7-7.2h-2.8l0.2-1h0.3c0.7,0,1.3-0.1,1.8-0.2c0.5-0.1,1-0.3,1.4-0.5s0.8-0.4,1.1-0.7c0.3-0.2,0.5-0.4,0.7-0.6h2
		c-0.2,0.6-0.3,1.1-0.5,1.7c-0.2,0.6-0.3,1.2-0.4,1.7l-1.5,6.4c0,0.1,0,0.2-0.1,0.3c0,0.1,0,0.2,0,0.3c0,0.2,0,0.3,0.1,0.5
		c0.1,0.1,0.2,0.2,0.3,0.3c0.2,0.1,0.5,0.2,0.9,0.2c0.4,0.1,0.8,0.1,1,0.1L-40.3,223.4z"/>
</g>
<polygon fill="#A55737" points="84.8,328.2 80.2,327.1 79.6,331.9 75.5,329.3 73.4,333.6 70.5,329.8 67.1,333.2 65.5,328.7 
	61.2,330.8 61.1,326 56.4,326.6 57.9,322.1 53.2,321.1 56.1,317.3 52,314.8 56,312.2 52.9,308.5 57.5,307.3 55.8,302.9 60.6,303.2 
	60.4,298.4 64.8,300.3 66.2,295.7 69.7,298.9 72.5,295.1 74.8,299.2 78.7,296.5 79.5,301.2 84.1,299.8 83.4,304.5 88.1,304.7 
	85.9,309 90.3,310.7 86.9,314 90.5,317.1 86.2,319 88.6,323.1 83.8,323.6 "/>
<g>
	<path fill="#FFFFFF" d="M68.1,309c0.5-0.3,1.1-0.6,1.8-0.8c0.7-0.2,1.5-0.3,2.4-0.3c1.7,0,3.1,0.3,4.1,0.9c1,0.6,1.5,1.5,1.5,2.6
		c0,0.7-0.2,1.3-0.5,1.8c-0.3,0.5-0.8,0.9-1.5,1.3c-0.6,0.3-1.3,0.6-2.2,0.8c-0.9,0.2-1.9,0.5-3,0.7c-0.6,0.1-1.3,0.3-1.8,0.5
		c-0.6,0.2-1.1,0.4-1.6,0.6v0.2h9.5l-0.7,3H64l0.5-2.2c0.3-0.2,0.6-0.4,0.9-0.6c0.3-0.2,0.7-0.4,1-0.6c0.5-0.3,1-0.5,1.5-0.8
		c0.5-0.2,0.9-0.4,1.3-0.6c1-0.4,1.7-0.8,2.2-1.1c0.5-0.3,0.9-0.6,1.3-0.9c0.4-0.4,0.6-0.8,0.7-1.2c0.1-0.4,0.2-0.8,0.2-1.3
		c0-0.7-0.2-1.2-0.6-1.6c-0.4-0.4-0.9-0.5-1.5-0.5c-0.4,0-0.8,0-1.1,0.1c-0.3,0.1-0.5,0.2-0.7,0.3c0.1,0.3,0.2,0.6,0.3,1
		s0.2,0.7,0.2,1.1c0,0.5-0.2,1-0.6,1.3c-0.4,0.3-0.8,0.5-1.4,0.5c-0.6,0-1-0.2-1.3-0.6c-0.3-0.4-0.5-0.8-0.5-1.3
		c0-0.4,0.1-0.8,0.4-1.2C67.2,309.7,67.5,309.3,68.1,309z"/>
</g>
<polygon fill="#A55737" points="-35.4,444.1 -40,443 -40.6,447.7 -44.7,445.2 -46.8,449.4 -49.7,445.7 -53.1,449.1 -54.7,444.6 
	-59,446.6 -59.1,441.9 -63.8,442.5 -62.3,437.9 -67,436.9 -64.1,433.1 -68.2,430.7 -64.2,428 -67.3,424.4 -62.7,423.2 -64.4,418.7 
	-59.6,419.1 -59.8,414.3 -55.4,416.2 -54,411.6 -50.5,414.8 -47.7,410.9 -45.4,415.1 -41.5,412.3 -40.7,417 -36.1,415.7 
	-36.8,420.4 -32.1,420.6 -34.3,424.8 -29.9,426.6 -33.3,429.8 -29.7,432.9 -34,434.9 -31.6,439 -36.4,439.4 "/>
<g>
	<path fill="#FFFFFF" d="M-47.2,421.7c1.1,0,1.9,0.1,2.6,0.3c0.7,0.2,1.2,0.5,1.6,0.8s0.6,0.7,0.8,1.1c0.1,0.4,0.2,0.8,0.2,1.1
		c0,0.4-0.1,0.8-0.3,1.2c-0.2,0.4-0.5,0.9-0.8,1.2c-0.4,0.4-0.9,0.7-1.5,1.1c-0.6,0.3-1.4,0.6-2.3,0.8v0.2c0.5,0,1,0.1,1.4,0.2
		c0.5,0.1,0.9,0.3,1.2,0.5c0.4,0.2,0.7,0.6,0.9,1c0.2,0.4,0.3,0.9,0.3,1.5c0,0.8-0.2,1.6-0.6,2.3c-0.4,0.7-1,1.3-1.8,1.8
		s-1.6,0.9-2.5,1.2s-1.9,0.4-3.1,0.4c-1.5,0-2.7-0.3-3.7-1c-0.9-0.6-1.4-1.4-1.4-2.4c0-0.5,0.2-1,0.5-1.3c0.3-0.4,0.8-0.6,1.4-0.6
		s1.1,0.2,1.4,0.5c0.4,0.3,0.5,0.8,0.5,1.3c0,0.4-0.1,0.8-0.2,1.1c-0.1,0.4-0.2,0.7-0.3,0.9c0.2,0.1,0.4,0.2,0.6,0.3
		c0.2,0.1,0.5,0.1,0.9,0.1c0.5,0,1-0.1,1.5-0.3s0.9-0.5,1.3-0.9c0.4-0.4,0.7-0.9,0.9-1.5c0.2-0.6,0.3-1.3,0.3-2.2
		c0-0.6-0.2-1.1-0.5-1.5c-0.3-0.4-0.9-0.6-1.8-0.6h-1.4l0.3-1.3h1c1.1,0,2-0.4,2.6-1.1s1-1.8,1-3.1c0-0.6-0.2-1.1-0.5-1.4
		c-0.3-0.4-0.8-0.5-1.5-0.5c-0.3,0-0.7,0-1,0.1s-0.7,0.2-0.9,0.3c0.1,0.3,0.2,0.6,0.3,0.9c0.1,0.3,0.2,0.7,0.2,1
		c0,0.5-0.2,1-0.5,1.3c-0.4,0.3-0.8,0.5-1.4,0.5s-1-0.2-1.3-0.6s-0.5-0.8-0.5-1.3c0-0.9,0.6-1.7,1.8-2.4
		C-50.5,422.1-49,421.7-47.2,421.7z"/>
</g>
<polygon fill="#A55737" points="128.1,576.9 123.5,575.8 122.9,580.5 118.8,578 116.7,582.2 113.8,578.5 110.4,581.9 108.8,577.4 
	104.5,579.5 104.4,574.7 99.7,575.3 101.2,570.8 96.5,569.8 99.4,566 95.3,563.5 99.3,560.9 96.2,557.2 100.8,556 99.1,551.5 
	103.9,551.9 103.7,547.1 108.1,549 109.5,544.4 113,547.6 115.8,543.7 118.1,547.9 122,545.1 122.8,549.8 127.4,548.5 126.7,553.2 
	131.4,553.4 129.2,557.6 133.6,559.4 130.2,562.6 133.8,565.7 129.5,567.7 131.9,571.8 127.1,572.3 "/>
<g>
	<path fill="#FFFFFF" d="M120.7,566.9h-2.5l-1,4.3h-3.7l1-4.3H107l0.5-2.2l10.3-10.1h3.2l-2.3,10h2.5L120.7,566.9z M115,564.6
		l1.7-7.2l-7.4,7.2H115z"/>
</g>
<linearGradient id="SVGID_2_" gradientUnits="userSpaceOnUse" x1="-94.839" y1="711.3223" x2="-113.7064" y2="659.8639" gradientTransform="matrix(1 0 0 1 0 -304)">
	<stop  offset="0.5005" style="stop-color:#D6B982"/>
	<stop  offset="1" style="stop-color:#89714E"/>
</linearGradient>
<ellipse opacity="0.22" fill="url(#SVGID_2_)" enable-background="new    " cx="-107.9" cy="371.7" rx="28.6" ry="2.3"/>
<linearGradient id="SVGID_3_" gradientUnits="userSpaceOnUse" x1="159.161" y1="839.3223" x2="140.2937" y2="787.864" gradientTransform="matrix(1 0 0 1 0 -304)">
	<stop  offset="0.5005" style="stop-color:#D6B982"/>
	<stop  offset="1" style="stop-color:#89714E"/>
</linearGradient>
<ellipse opacity="0.22" fill="url(#SVGID_3_)" enable-background="new    " cx="146.1" cy="499.7" rx="28.6" ry="2.3"/>
<path fill="#A7B780" d="M124,431.8l1.2,4.5c0,0,11.2-4,9.1-6.8C132.6,427,129.9,430.1,124,431.8z"/>
<g>
	<path fill="#FFFFFF" d="M-36.9,482.7c0,0-7.1-5.2-19.1-2.5c-12.1,2.7-11.3,15.1-11.3,15.1s2.3,0.3,3.7,1.3c0,0-10.3-2.8-15.2,6.9
		c-4.8,9.7-1.3,16-1.3,16s-1.4-1.3-2.1-4.1c0,0-5.5,5-4.7,18.1c0.9,13,12.8,20.4,20.1,21.2c0,0-2,0.6-5.5-0.6c0,0,0.6,6.4,10.9,9.4
		c10.3,2.9,16.2-11.8,16.2-11.8s-0.3,3.5-2.6,6.6c0,0,8.2,3.2,15.7-1.4c7.5-4.6,6.8-14.1,6.8-14.1s3.1,1.8,7.8-0.8
		c4.7-2.7,2.3-9,2.3-9s-3,0.6-6-0.7c0,0,6.8,1,13.9-3.2c7.1-4.2,4-14.7,4-14.7s0.7,0.7,1.4,2.9c0,0,4-2.4,3-10.4
		c-1-8-5.4-7.1-5.4-7.1s-0.9,0.8-2.4,1.3c0,0,5.7-4.1,5.1-12.5c-0.6-8.4-10.9-12.6-19.1-8c0,0,0.9,1.3,1,2.8c0,0-2.8-5.5-8.1-6.2
		c-5.2-0.7-8.2,6-8.5,8.1L-36.9,482.7z"/>
	<path fill="#FFFFFF" d="M19.5,491.4c0,0-3.2-2.2-6.8-0.4c-3.6,1.8-3.8,7.8,0.4,10.5c0,0-1.9-0.4-3-2.2c0,0-3.6,1.9-2.2,6.2
		c1.4,4.4,8.3,2.5,8.3,2.5s-0.3,1.6,0.9,3.6c1.2,2,10.2,2,12.4-2.7c2.2-4.7-1.9-5.4-1.9-5.4s2.8-0.5,4.1-3c1.2-2.5-1.2-8.9-3.6-10.2
		c-2.3-1.2-7.5,0.4-10.3,3.6C17.8,494,18.7,492.1,19.5,491.4z"/>
	<path fill="#FFFFFF" d="M41.1,513.7c0,0,1.3-1.6,0.7-2.7c-0.5-1.1-3.2-3-5.3-2.1s-2.1,3.4-2.1,3.4s-1-0.7-2.3-0.7
		c-1.3,0.1-3.3,3.3-2.4,5.1c0.9,1.8,3.1,1.2,3.1,1.2s-1.5,1.3-1.2,2.2s4,2.5,7,1.8c3-0.7,1.8-3.9,1.8-3.9s1.6,1,2.5,0.4
		c1-0.7,2.2-5.6-3.4-4.2C39.6,514.3,40.6,513.8,41.1,513.7z"/>
	<g>
		<g>
			<path fill="#7B9D42" d="M-27.8,523c0.2,0.7,0.4,1.5,0.5,2.2c1.2-0.3,2.4-0.7,3.6-1c-0.1-0.7-0.3-1.4-0.4-2.1
				c0.7-0.4,1.3-0.8,1.9-1.3c0.6,0.4,1.1,0.8,1.7,1.2c0.8-1.1,1.7-2.2,2.5-3.3c-0.6-0.4-1.1-0.7-1.7-1.1c0.3-0.7,0.6-1.4,0.7-2.1
				c0.8-0.1,1.5-0.2,2.3-0.2c-0.1-1.2-0.2-2.3-0.3-3.5c-0.8,0-1.5,0-2.3,0.1c-0.2-0.7-0.6-1.3-1-2c0.5-0.5,1-0.9,1.5-1.4
				c-1-0.9-2-1.9-2.9-2.9c-0.4,0.4-0.9,0.9-1.4,1.4c-0.6-0.5-1.3-0.8-2-1.1c0-0.8,0.1-1.5,0.1-2.2c-1.2-0.2-2.3-0.5-3.5-0.6
				c-0.1,0.7-0.1,1.5-0.2,2.2c-0.7,0.1-1.4,0.3-2,0.5c-0.4-0.6-0.7-1.2-1-1.9c-1,0.8-2,1.6-3.1,2.4c0.3,0.6,0.6,1.1,1,1.7
				c-0.5,0.6-1,1.2-1.5,1.8c-0.7-0.2-1.4-0.3-2-0.4c-0.5,1.2-1,2.4-1.4,3.6c0.7,0.2,1.4,0.3,2.1,0.5c-0.1,0.4-0.1,0.8-0.1,1.2
				c0,0.3,0,0.6,0.1,0.9c-0.7,0.3-1.4,0.5-2.1,0.8c0.5,1.1,1.1,2.2,1.7,3.4c0.7-0.2,1.3-0.4,2-0.7c0.5,0.6,1,1.2,1.6,1.7
				c-0.3,0.6-0.6,1.2-0.8,1.8c1.2,0.7,2.4,1.4,3.5,2c0.3-0.6,0.6-1.3,0.8-1.9C-29.2,522.9-28.5,523-27.8,523z M-33.6,514.4
				c-0.1-3.1,2.4-6,5.4-6.2c3-0.2,5.9,2.4,6.2,5.4c0.2,3.1-2.3,6-5.4,6.2C-30.6,520-33.5,517.5-33.6,514.4z"/>
			<circle fill="#60493B" cx="-27.8" cy="514" r="3.9"/>
		</g>
		<path fill="#E55A2E" d="M-43,512.3c0.6,0.8,1.1,1.6,1.7,2.3c0.6-0.4,1.1-0.7,1.7-1.1c-0.3-0.9-0.6-1.8-0.9-2.7
			c0.8-0.7,1.5-1.5,2-2.4c0.9,0.1,1.9,0.3,2.8,0.4c0.3-0.6,0.5-1.2,0.8-1.8c-0.8-0.4-1.7-0.8-2.6-1.2c0.2-1,0.2-1.9-0.1-2.9
			c0.8-0.4,1.7-0.8,2.5-1.2c-0.3-0.6-0.5-1.1-0.8-1.7c-0.9,0.1-1.9,0.2-2.8,0.4c-0.6-0.9-1.3-1.7-2.2-2.4c0.3-0.8,0.6-1.7,0.8-2.5
			c-0.6-0.4-1.1-0.8-1.7-1.1c-0.5,0.7-1,1.4-1.6,2.2c-0.9-0.4-1.9-0.6-2.8-0.5c-0.3-1-0.6-1.9-0.8-2.9c-0.6,0.1-1.1,0.2-1.7,0.4
			c0,1,0,2.1-0.1,3.1c-0.9,0.4-1.7,1-2.4,1.6c-0.8-0.5-1.6-1-2.3-1.5c-0.4,0.5-0.9,1.1-1.4,1.6c0.6,0.7,1.2,1.4,1.8,2.2
			c-0.5,0.8-0.8,1.7-1,2.6c-1.1,0.2-2.1,0.3-3.2,0.5c0,0.6-0.1,1.2-0.1,1.8c1.1,0.2,2.2,0.3,3.3,0.5c0.1,0.4,0.2,0.9,0.4,1.3
			c0.2,0.4,0.4,0.8,0.6,1.2c-0.7,0.7-1.4,1.4-2.1,2.1c0.5,0.5,0.9,1,1.4,1.5c0.9-0.4,1.8-0.9,2.7-1.4c0.7,0.6,1.6,1.1,2.5,1.5
			c0,1.1,0,2.1,0,3.2c0.6,0.2,1.2,0.3,1.8,0.5c0.3-1,0.6-2,0.9-3C-44.8,512.8-43.9,512.6-43,512.3z M-48.7,505.5
			c-0.6-1.6,0.2-3.4,1.8-4.1c1.6-0.6,3.4,0.2,4.1,1.8c0.7,1.6-0.2,3.4-1.8,4.1C-46.2,508-48,507.1-48.7,505.5z"/>
		<path fill="#60493B" d="M-21,502.7c0.4,0.5,0.7,1,1,1.4c0.3-0.2,0.7-0.5,1-0.7c-0.2-0.6-0.3-1.1-0.5-1.7c0.5-0.4,0.9-0.9,1.2-1.5
			c0.6,0.1,1.2,0.2,1.7,0.2c0.2-0.4,0.3-0.7,0.5-1.1c-0.5-0.2-1-0.5-1.6-0.7c0.1-0.6,0.1-1.2,0-1.8c0.5-0.2,1-0.5,1.5-0.7
			c-0.2-0.3-0.3-0.7-0.5-1c-0.6,0.1-1.1,0.1-1.7,0.2c-0.4-0.5-0.8-1-1.3-1.4c0.2-0.5,0.3-1,0.5-1.5c-0.3-0.2-0.7-0.5-1-0.7
			c-0.3,0.4-0.6,0.9-1,1.3c-0.6-0.2-1.1-0.3-1.7-0.3c-0.2-0.6-0.4-1.2-0.5-1.8c-0.3,0.1-0.7,0.1-1,0.2c0,0.6,0,1.3,0,1.9
			c-0.5,0.2-1,0.6-1.5,1c-0.5-0.3-1-0.6-1.4-0.9c-0.3,0.3-0.6,0.6-0.8,1c0.3,0.4,0.7,0.9,1.1,1.4c-0.3,0.5-0.5,1-0.6,1.6
			c-0.7,0.1-1.3,0.2-2,0.3c0,0.4,0,0.7-0.1,1.1c0.7,0.1,1.3,0.2,2,0.3c0.1,0.3,0.1,0.5,0.2,0.8c0.1,0.3,0.2,0.5,0.4,0.7
			c-0.4,0.4-0.9,0.9-1.3,1.3c0.3,0.3,0.6,0.6,0.8,0.9c0.5-0.3,1.1-0.6,1.7-0.9c0.5,0.4,1,0.7,1.5,0.9c0,0.6,0,1.3,0,1.9
			c0.4,0.1,0.7,0.2,1.1,0.3c0.2-0.6,0.4-1.2,0.6-1.9C-22.1,503-21.6,502.9-21,502.7z"/>
		<path fill="#00B5CC" d="M-37.1,540.6c0.3,0.5,0.6,0.9,0.9,1.3c0.3-0.2,0.6-0.4,0.9-0.6c-0.2-0.5-0.3-1-0.5-1.6
			c0.5-0.4,0.8-0.9,1.1-1.4c0.5,0.1,1.1,0.2,1.6,0.2c0.2-0.3,0.3-0.7,0.5-1c-0.5-0.2-1-0.4-1.5-0.7c0.1-0.5,0.1-1.1,0-1.7
			c0.5-0.2,0.9-0.5,1.4-0.7c-0.1-0.3-0.3-0.6-0.5-1c-0.5,0.1-1.1,0.1-1.6,0.2c-0.3-0.5-0.8-1-1.2-1.3c0.2-0.5,0.3-0.9,0.4-1.4
			c-0.3-0.2-0.6-0.4-1-0.6c-0.3,0.4-0.6,0.8-0.9,1.2c-0.5-0.2-1.1-0.3-1.6-0.3c-0.2-0.5-0.3-1.1-0.5-1.6c-0.3,0.1-0.6,0.1-1,0.2
			c0,0.6,0,1.2,0,1.8c-0.5,0.2-1,0.5-1.4,0.9c-0.5-0.3-0.9-0.6-1.3-0.8c-0.3,0.3-0.5,0.6-0.8,0.9c0.3,0.4,0.7,0.8,1,1.3
			c-0.3,0.5-0.5,1-0.6,1.5c-0.6,0.1-1.2,0.2-1.8,0.3c0,0.3,0,0.7-0.1,1c0.6,0.1,1.2,0.2,1.9,0.3c0.1,0.2,0.1,0.5,0.2,0.7
			c0.1,0.2,0.2,0.5,0.3,0.7c-0.4,0.4-0.8,0.8-1.2,1.2c0.3,0.3,0.5,0.6,0.8,0.9c0.5-0.2,1-0.5,1.5-0.8c0.4,0.4,0.9,0.6,1.4,0.8
			c0,0.6,0,1.2,0,1.8c0.3,0.1,0.7,0.2,1,0.3c0.2-0.6,0.3-1.1,0.5-1.7C-38.1,540.9-37.6,540.8-37.1,540.6z"/>
		<g>
			<g>
				<path fill="#60493B" d="M-58.4,536.4c0,0.9,0,1.9-0.1,2.8c1.5,0,3-0.1,4.6-0.2c0.1-0.9,0.1-1.8,0.2-2.7c0.9-0.2,1.8-0.6,2.7-1
					c0.6,0.7,1.1,1.3,1.6,1.9c1.3-1.1,2.7-2.1,4-3.1c-0.6-0.6-1.1-1.2-1.7-1.9c0.6-0.7,1.1-1.5,1.5-2.3c0.9,0.1,1.9,0.3,2.8,0.4
					c0.3-1.4,0.5-2.9,0.7-4.3c-0.9-0.2-1.8-0.4-2.7-0.6c-0.1-0.9-0.3-1.8-0.6-2.7c0.8-0.4,1.5-0.8,2.2-1.2c-0.9-1.4-1.8-2.9-2.6-4.4
					c-0.7,0.4-1.4,0.8-2.1,1.2c-0.6-0.7-1.3-1.4-2-1.9c0.3-0.9,0.5-1.8,0.8-2.7c-1.3-0.7-2.7-1.3-4-1.8c-0.3,0.9-0.6,1.7-0.9,2.6
					c-0.9-0.1-1.7-0.1-2.6,0c-0.2-0.9-0.5-1.7-0.7-2.5c-1.4,0.6-2.9,1.3-4.5,1.9c0.2,0.8,0.4,1.5,0.6,2.3c-0.8,0.5-1.6,1.1-2.3,1.8
					c-0.8-0.4-1.5-0.8-2.3-1.1c-1,1.3-1.9,2.6-2.8,3.8c0.8,0.4,1.5,0.8,2.3,1.2c-0.2,0.5-0.3,0.9-0.4,1.4c-0.1,0.4-0.1,0.8-0.2,1.2
					c-0.9,0.1-1.8,0.2-2.7,0.3c0.3,1.5,0.6,3,1,4.5c0.8,0,1.7-0.1,2.6-0.2c0.4,0.9,0.9,1.7,1.4,2.5c-0.5,0.7-1.1,1.3-1.6,1.9
					c1.2,1.2,2.4,2.4,3.6,3.5c0.5-0.7,1-1.3,1.6-2C-60.1,535.8-59.3,536.2-58.4,536.4z M-62.8,524.3c0.8-3.7,4.7-6.4,8.4-5.7
					c3.7,0.7,6.3,4.6,5.7,8.4c-0.7,3.7-4.6,6.4-8.4,5.7C-60.9,531.9-63.5,528-62.8,524.3z"/>
			</g>
			<circle fill="#E55A2E" cx="-55.7" cy="525.7" r="5"/>
		</g>
	</g>
	<path fill="#EADA9E" d="M22.6,566.7c-27.8,11.8-23.3-3.6-23.3-3.6s3.2-0.7,2.8-3.4c-0.4-2.7,1.6-3.8,1.6-3.8l-1.4-2
		c-2.8,0.7-3.2,3-3.2,3s-2.5-0.5-3.2,2.1c0,0-0.3-1.8,1.4-2.3c-4-1.5-5.7-5.3-5.7-5.3c-1.4-0.4-2.8-0.4-4-0.3c0.7,0.8,3,3.5,6.4,5.7
		c0,0-3.8-1.9-7-5.6c-1,0.2-1.9,0.4-2.7,0.7c0.8,0.9,3.4,3.7,7.6,6c0,0-4-1.6-8.2-5.7c-1.1,0.5-1.8,1-1.8,1c2.9,6.1,9.9,9,9.9,9
		c-1.9,25.3,28.9,8.7,28.9,8.7c1.5-0.7,2.7-1.5,3.3-2.7C23.9,568.2,24.8,565.8,22.6,566.7z"/>
	<path fill="#7B9D42" d="M14.2,569.4l1.2,4.5c0,0,11.2-4,9.1-6.8C22.9,564.6,20.2,567.7,14.2,569.4z"/>
	<path fill="#EADA9E" d="M50.1,559.1c0,0-3.3,7.8-5.5,12.3c0,0-13.1,0.1-21.1-5.1c0,0-3.6-12.7,4.8-27.8
		c8.4-15.1,29.1-7.4,25.6,11.6c0,0,4.3,0.8,1.8,5.9C53,561.1,50.1,559.1,50.1,559.1z"/>
	<path fill="#F26531" d="M47.6,542.4c0,0-7.7,4.1-17.8,2.4c-10.1-1.7-6.7-9.7-6.4-11.8c0.3-2.1-1.6-3.6-3.1-3.8c0,0,16-4.9,28.9,1.1
		c12.9,6,5.1,10,5.1,10s9.5,1.9,1.4,10.8c0,0-3.9-4.2-8.3,4.1c0,0-3.5,0.4-2.8-1.1c0.7-1.6,2.4-2.9,0.1-4.5
		C42.5,548,44.2,545.6,47.6,542.4z"/>
	<path fill="#60493B" d="M35.2,551.6c-0.6-0.2-1.2,0.3-1.3,0.8c-0.1,0.7,0.2,1.2,0.9,1.4c0.7,0.2,1.1-0.4,1.2-0.9
		C36,552.4,35.8,551.7,35.2,551.6z"/>
	<path fill="#60493B" d="M29,550c-0.6-0.1-1.1,0.3-1.2,0.8c-0.1,0.6,0.2,1.1,0.8,1.3c0.6,0.1,1-0.3,1.1-0.8
		C29.8,550.7,29.6,550.1,29,550z"/>
	<path fill="#60493B" d="M24.4,558.2c0,0,4.3,6.4,14.9,3.8C39.3,562,27.6,568.3,24.4,558.2z"/>
	<g>
		<path fill="#60493B" d="M47.6,601.9c-4.5,0.9-22.9,3.4-35.8-7.6C11.3,609.6,44.8,611.3,47.6,601.9z"/>
	</g>
	<g>
		<path fill="#7B9D42" d="M11.7,594.4c12.9,11,30.4,8.6,35.8,7.6c0,0,0.1,0,0.1,0c1.8-5.2,3.1-23.7-2.5-31.9c0,0-11,1.8-21.7-3.9
			C23.4,566.3,14.7,572.2,11.7,594.4C11.7,594.4,11.7,594.4,11.7,594.4z"/>
		<path fill="#60493B" d="M26.1,569.1c0,0-0.2,3.3-0.2,3.7l-7.8,11l1.6,7.8l6.9-5l2.4-13.1l3.5-2.7
			C32.6,570.9,29.5,567.3,26.1,569.1z"/>
		<path fill="#A7B780" d="M35.8,578.7l-2.2,7.4c0,0,2.8,1.3,7.1,1.3c0,0,1.7-5,2-7.1C42.8,580.3,40.5,580.5,35.8,578.7z"/>
		<path fill="#A7B780" d="M23.4,566.3c0,0,0.3,2.6,1,3.8l4.9-1.2c0,0,2.1,3.7,3.2,5.1c0,0,2.5,0.2,9.4-3.6
			C41.9,570.4,32.5,570.9,23.4,566.3z"/>
		<path fill="#FFFFFF" d="M40.5,580.1l0.8,0.2c0,0-0.5,2-0.5,2.3c0,0.3,0.4,0.7,1-2.3C42.5,577.2,42.2,574.1,40.5,580.1z"/>
	</g>
	<path fill="#EADA9E" d="M51.8,572.2c-6.2-2.4-9.3,0.9-1.6,3.8c0,0,10.5,3.4-0.3,8c0,0-1.6-1.6-4.8-2.6l-0.7,2.3c0,0,1.7,0.2,2.9,2
		c0,0-0.7,4.7-6.4,8.4c0,0,0.1,1.1,0.9,2.3c0.7-0.6,3.8-3.2,5.5-6.1c0,0-1.7,3.7-5.2,6.5c0.4,0.6,0.9,1.2,1.6,1.8
		c0.6-0.5,3.1-2.6,4.9-7.1c0,0-1.4,4.9-4.6,7.3c0.6,0.5,1.3,0.9,2.2,1.2c0,0,3.2-2.7,5.1-10.2C51.3,589.9,72.1,580,51.8,572.2z"/>
	<path fill="#7B9D42" d="M49.9,576.3c0,0,1.2-2.3,1.4-4.6c0,0-6.3-2.9-7.3-0.8C42.9,572.9,45.8,574.6,49.9,576.3z"/>
	<g>
		<path fill="#E55A2E" d="M11.5,626.2c-0.6,0.1-10.5,1.8-12.5,6.7c0,0,10.5,3.6,20.7-1.1C19.7,631.8,18.7,625.9,11.5,626.2z"/>
		<path fill="#60493B" d="M14.9,599.7c-0.9,0.7-3.1,26.4-3.1,26.4s0.6,4.8,6.9,3.4c0,0-2.5-15.9-1.1-28.9
			C17.6,600.6,17.2,597.8,14.9,599.7z"/>
	</g>
	<g>
		<path fill="#E55A2E" d="M59.1,629.7c-2.7-0.1-5.8,0.9-6.3,4.9c0,0,7.9,7.2,17.1,1.9C69.9,636.5,68.6,630.3,59.1,629.7z"/>
		<path fill="#60493B" d="M60.3,629.7c0,0-0.3,3.9-7.2,3.3c0,0-4.9-14.9-11.7-27.2c0,0-0.9-1.1,0.3-1.7c1.2-0.6,1.9-0.2,2.7,0.7
			C45.1,605.7,52.4,616.3,60.3,629.7z"/>
	</g>
	
		<linearGradient id="SVGID_4_" gradientUnits="userSpaceOnUse" x1="44.161" y1="975.3223" x2="25.2937" y2="923.864" gradientTransform="matrix(1 0 0 1 0 -304)">
		<stop  offset="0.5005" style="stop-color:#D6B982"/>
		<stop  offset="1" style="stop-color:#89714E"/>
	</linearGradient>
	<ellipse opacity="0.22" fill="url(#SVGID_4_)" enable-background="new    " cx="31.1" cy="635.7" rx="28.6" ry="2.3"/>
</g>
<g>
	
		<linearGradient id="SVGID_5_" gradientUnits="userSpaceOnUse" x1="-89.606" y1="961.9706" x2="-101.333" y2="929.9867" gradientTransform="matrix(1 0 0 1 0 -304)">
		<stop  offset="0.5005" style="stop-color:#D6B982"/>
		<stop  offset="1" style="stop-color:#89714E"/>
	</linearGradient>
	<ellipse opacity="0.22" fill="url(#SVGID_5_)" enable-background="new    " cx="-97.7" cy="635.8" rx="17.8" ry="1.4"/>
	<g>
		<g>
			<path fill="#D29874" d="M-106.2,596.9c0,0,0.7,24,0.7,26.6c-1.4,2.1-1.7,2.4-5.9,7.6l5.2,0.6l5.3-5.5l1.6-29.4L-106.2,596.9z"/>
			<path fill="#2F2F2F" d="M-110.2,629.6c0,0-5.9,4.4-3.4,5.4c0.4,0.2,6.7-0.5,8.4-2.3c1.4-1.5,2.9-3.3,2.9-3.3l0.4,3.5h1.1
				c0,0,0.6-5.1,0.7-6.4c0.1-1.3-0.5-3.2-0.5-3.2s-4.6,6.6-7.1,6.8C-108.9,630.2-109.6,630-110.2,629.6z"/>
		</g>
		<g>
			<path fill="#D29874" d="M-89.5,596.9c0,0-0.7,24-0.7,26.6c1.4,2.1,1.7,2.4,5.9,7.6l-5.2,0.6l-5.3-5.5l-1.6-29.4L-89.5,596.9z"/>
			<path fill="#2F2F2F" d="M-85.5,629.6c0,0,5.9,4.4,3.4,5.4c-0.4,0.2-6.7-0.5-8.4-2.3c-1.4-1.5-2.9-3.3-2.9-3.3l-0.4,3.5h-1.1
				c0,0-0.6-5.1-0.7-6.4c-0.1-1.3,0.5-3.2,0.5-3.2s4.6,6.6,7.1,6.8C-86.9,630.2-86.1,630-85.5,629.6z"/>
		</g>
		<path fill="#020202" d="M-89.3,566.8h-17.5c0,0-3.9,7.5-3.1,13.9c0.7,6.4,2.3,15.8,1,18.8c1.6,0.6,7.5,1.8,10.8,1.8l0,0
			c0,0,0,0,0.1,0c0,0,0.1,0,0.1,0l0,0c3.3,0,8.8-1.2,10.5-1.8c-1.3-3,0.6-12.4,1.3-18.8C-85.4,574.2-89.3,566.8-89.3,566.8z"/>
		<path fill="#D29874" d="M-77,566.4l-2.5,1.2c0,0,1.8,3.7,2.6,6.5c0.3,1,1,3.5,2,3.6c1,0,0-3.4,0-3.4s7.1,3.8,8.1,2.2
			c1-1.6-5.5-4.3-7.6-6.7C-76.6,567.5-77,566.4-77,566.4z"/>
		<path fill="#666666" d="M-88.9,540.4c0.4,0.2,0.7-0.8,1.8,0.5c1.1,1.4,3.1,4.8,4.4,7.8c3,6.7,9.2,20.7,9.2,20.7l-5.8,2.9l-6-14.1
			c0,0-4.2-10.2-4.8-12.6C-89.9,543.6-89.4,542.3-88.9,540.4z"/>
		<path fill="#CA855A" d="M-90.5,540.6l-3.9-1.7v-6.2h-6.4v6.2l-4,1.7c0,0-0.7,4.5,7.2,5C-89.8,545.2-90.5,540.6-90.5,540.6z"/>
		<polygon fill="#CEE2FF" points="-104.5,541.9 -91.5,541.9 -97.9,559.1 		"/>
		<path fill="#FFFFFF" stroke="#949EB1" stroke-width="0.4514" stroke-linecap="round" stroke-linejoin="round" d="M-104.3,539.9
			l3.1-1.6l3.4,3.5C-97.8,541.8-104.2,548.5-104.3,539.9z"/>
		<path fill="#FFFFFF" stroke="#949EB1" stroke-width="0.4514" stroke-linecap="round" stroke-linejoin="round" d="M-91.3,539.9
			l-3.1-1.6l-3.4,3.5C-97.8,541.8-91.5,548.5-91.3,539.9z"/>
		<path fill="#666666" d="M-107.1,540.6c0,0-2.3-0.5-3,0.2c-0.6,0.6-7.5,15-7.5,15l5.2,3l5.3-9.2L-107.1,540.6z"/>
		<path fill="#666666" d="M-88.6,565.4c0,0-1.2-3.5-0.7-4.9c0.5-1.3,2.4-5.9,2.3-11.1c-0.1-3.5-1.1-8.8-1.1-8.8L-92,539l-5.9,16.4
			l-5.9-16.4l-3.9,1.6c0,0-1,5.2-1.1,8.8c-0.1,5.3,1.8,9.8,2.3,11.1c0.5,1.3-0.7,4.9-0.7,4.9s-1,3.3-2.8,8.8
			c4.7,0.7,11.2-2.2,12-4.1c0.8,1.9,7.3,4.8,12,4.1C-87.5,568.7-88.6,565.4-88.6,565.4z"/>
		<circle fill="none" stroke="#404040" stroke-width="0.3554" cx="-97.8" cy="559.3" r="0.9"/>
		<circle fill="#FFFFFF" cx="-97.8" cy="546.1" r="0.6"/>
		<circle fill="#FFFFFF" cx="-97.8" cy="550.1" r="0.6"/>
		<circle fill="none" stroke="#404040" stroke-width="0.3554" cx="-97.8" cy="566" r="0.9"/>
		<g>
			<polyline fill="none" stroke="#404040" stroke-width="0.5139" points="-91,539.8 -89.3,547.6 -92.7,547.8 -90.2,549.6 
				-97.8,556.3 -105.4,549.6 -102.9,547.8 -106.3,547.6 -104.6,539.8 			"/>
		</g>
		<g>
			<path fill="#D29874" d="M-109.9,547.5l-4.2-0.8c0,0,0.9-2.9,0.8-3.4c-0.5-0.9-1.6-2.8-3.4-4.3c-0.7-0.6,0.9-4.6,1.5-4.7
				c0.6-0.1,0.8-0.2,0.8-0.2s0.3-1.3,1.2-1.2c1,0.1,2.9,1.6,2.7,2.4c0.6,0.2,1.6,0.2,1.8,1.3c0.1,1.2,0.1,2.9,0.1,2.9
				c0.2,0.7,0.7,1.7,0.4,2.8c-0.3,1.1-0.5,1-0.9,2.3C-109.5,545.8-109.9,547.5-109.9,547.5z"/>
			<path fill="none" stroke="#B37044" stroke-width="0.4504" stroke-linecap="round" stroke-linejoin="round" d="M-109.7,535.6
				c0,0-0.6,1.4-1.1,3.1"/>
			<path fill="none" stroke="#B37044" stroke-width="0.4504" stroke-linecap="round" stroke-linejoin="round" d="M-111.4,535.2
				c0,0-1.2,2.8-1.4,3.2"/>
			<path fill="none" stroke="#B37044" stroke-width="0.4504" stroke-linecap="round" stroke-linejoin="round" d="M-113.2,534.8
				c0,0-1.1,1.8-1.5,3"/>
			<path fill="none" stroke="#B37044" stroke-width="0.4504" stroke-linecap="round" stroke-linejoin="round" d="M-115.2,534.4
				c0,0,0.9-0.5,2.1,0.4c0.8,0,1.2-0.1,1.9,0.5c0.5-0.2,1.1,0,1.6,0.4c0.5,0.1,0.9,0.3,1,1.3c0.1,1,0.1,2.6,0.1,2.6
				c0.1,0.4,0.8,2,0.5,2.9c-0.2,0.8-1.6,3.4-1.8,5.4"/>
		</g>
		<polygon fill="#FFFFFF" stroke="#949EB1" stroke-width="0.4514" stroke-linecap="round" stroke-linejoin="round" points="
			-115,547.9 -114.1,544.4 -108.9,546.2 -109.9,549.4 		"/>
		<path fill="#666666" d="M-115.6,546l6.8,2.2c0,0-2.4,13.5-6.8,12.5C-120,559.8-115.6,546-115.6,546z"/>
		<path fill="none" stroke="#404040" stroke-width="0.5139" d="M-115.6,546l6.8,2.2c0,0-0.9,3.2-2.4,7.7"/>
		<polyline fill="none" stroke="#404040" stroke-width="0.5139" points="-107,565 -102.8,565.7 -103.3,568 -107.7,567.3 		"/>
		<polyline fill="none" stroke="#404040" stroke-width="0.5139" points="-88.7,565 -92.9,565.7 -92.4,568 -88,567.3 		"/>
		<g>
			<path fill="#46210C" d="M-105.8,517c-1.2,1.3-4.1,1.1-6.4-0.4c-2.3-1.5-2.6-3.3-1.4-4.6c1.2-1.3,3.5-1.5,5.8,0
				C-105.5,513.5-104.6,515.7-105.8,517z"/>
			<path fill="#46210C" d="M-109.6,519.4c-0.1,1.6-1.8,2.8-3.7,2.7c-1.9-0.1-2.9-1.4-2.8-3c0.1-1.6,1.3-2.8,3.2-2.7
				C-110.9,516.5-109.5,517.8-109.6,519.4z"/>
			<path fill="#46210C" d="M-109.2,521.9c0.6,1.3-0.3,3.5-2,4.8c-1.7,1.4-3.1,1-3.7-0.3c-0.6-1.3-0.1-3.2,1.6-4.5
				C-111.7,520.6-109.8,520.6-109.2,521.9z"/>
			<path fill="#46210C" d="M-104,529.8c0.2,1.4-1.2,3.3-3.2,4.2c-2,0.9-3.3,0.2-3.5-1.2c-0.2-1.4,0.7-3.1,2.7-4
				C-106.1,528-104.3,528.4-104,529.8z"/>
			<path fill="#46210C" d="M-103.7,507.2c0.7-1.8,2.8-2.4,4.7-1.4c2,1,2.5,3,1.9,4.8c-0.7,1.8-2.3,2.7-4.2,1.7
				C-103.3,511.2-104.3,508.9-103.7,507.2z"/>
			<path fill="#46210C" d="M-104.3,513.3c-1.4,0.7-3.3-0.1-4.2-1.8c-0.9-1.7-0.3-3.2,1.1-3.9c1.4-0.7,3.1-0.3,4,1.4
				C-102.5,510.6-102.9,512.6-104.3,513.3z"/>
			<path fill="#46210C" d="M-89.8,517c1.1,1.2,3.6,1.1,5.7-0.3c2.1-1.4,2.3-3.2,1.3-4.4c-1.1-1.2-3.1-1.4-5.2,0
				C-90.1,513.6-90.9,515.8-89.8,517z"/>
			<path fill="#46210C" d="M-86.7,519.4c0.1,1.6,1.8,2.8,3.7,2.7c1.9-0.1,2.9-1.4,2.8-3c-0.1-1.6-1.3-2.8-3.2-2.7
				C-85.3,516.5-86.8,517.8-86.7,519.4z"/>
			<path fill="#46210C" d="M-86.4,521.9c-0.6,1.3,0.3,3.5,2,4.8c1.7,1.4,3.1,1,3.7-0.3c0.6-1.3,0.1-3.2-1.6-4.5
				C-84,520.6-85.8,520.6-86.4,521.9z"/>
			<path fill="#46210C" d="M-91.6,529.8c-0.2,1.4,1.2,3.3,3.2,4.2c2,0.9,3.3,0.2,3.5-1.2c0.2-1.4-0.7-3.1-2.7-4
				C-89.6,528-91.4,528.4-91.6,529.8z"/>
			<path fill="#46210C" d="M-96.5,511.9c1.4,1,3.3,0.3,4.3-1.5c1-1.9,0.5-3.7-0.9-4.7c-1.4-1-3.1-0.8-4.1,1.1
				C-98.2,508.6-97.9,510.9-96.5,511.9z"/>
			<path fill="#46210C" d="M-91.3,513.3c1.4,0.7,3.3-0.1,4.2-1.8c0.9-1.7,0.3-3.2-1.1-3.9c-1.4-0.7-3.1-0.3-4,1.4
				C-93.1,510.6-92.7,512.6-91.3,513.3z"/>
			
				<ellipse transform="matrix(0.9788 -0.2048 0.2048 0.9788 -110.4626 -11.3116)" fill="#D29874" cx="-109.9" cy="528" rx="3.6" ry="4.1"/>
			
				<ellipse transform="matrix(0.9789 -0.2045 0.2045 0.9789 -110.2761 -11.3119)" fill="#B37044" cx="-109.9" cy="528" rx="2.1" ry="2.4"/>
			
				<ellipse transform="matrix(-0.9788 -0.2048 0.2048 -0.9788 -277.8297 1027.2694)" fill="#D29874" cx="-85.8" cy="528" rx="3.6" ry="4.1"/>
			
				<ellipse transform="matrix(-0.9789 -0.2045 0.2045 -0.9789 -277.6566 1027.3348)" fill="#B37044" cx="-85.8" cy="528" rx="2.1" ry="2.4"/>
			<path fill="#D29874" d="M-85.4,523.4c0,8.5-3.8,14.7-12.3,14.7c-8.5,0-12.4-6.2-12.4-14.7c0-8.5,3.6-14,12.3-14.1
				C-89.1,509.4-85.5,515-85.4,523.4z"/>
			<path fill="none" stroke="#A16145" stroke-width="0.8174" stroke-linecap="round" stroke-linejoin="round" d="M-98.8,531.4
				c0-0.6,0.5-1.1,1.1-1.1l0,0c0.6,0,1.1,0.5,1.1,1.1"/>
			<path fill="#CA855A" d="M-86.8,524c-2.6,0.4-5.3-0.1-7.6-1.3c-3-1.5-5.7-4.1-7.3-7.7c-3.6,1.9-6.4,6.3-7.6,9.2
				c-0.3,0.8-1.2,0.6-1.1,0c0.3-1.4,2.5-7.7,8.8-10.7c1.6,3.5,4.1,6.2,7.1,7.7c2.4,1.2,5,1.7,7.6,1.3
				C-83.8,524.5-86.4,524.6-86.8,524z"/>
			<g>
				<path fill="#46210C" d="M-93.4,509.2c-4.4-1.5-8.8-0.7-11.7,1.7c-3.6,1.2-6.3,5.2-6.3,10.1c0,1,0.1,2,0.3,2.9
					c0.3,1.1,1.4,1.2,1.6,0.4c0.3-1.2,0.7-2.3,1.3-3.4c1.5-2.9,3.8-5.3,6.6-6.8c1.6,3.5,4.1,6.2,7.1,7.7c2.4,1.2,5,1.7,7.6,1.3
					c0.4,1.1,1.7,1.6,2,0.6c0.1-0.4,0.2-0.8,0.3-1.2C-83.6,517.2-87.4,511.3-93.4,509.2z"/>
			</g>
			<g>
				<path fill="none" stroke="#46210C" stroke-width="0.4589" stroke-linecap="round" stroke-linejoin="round" d="M-101.8,523.2
					c-0.2-0.5-0.8-0.9-1.5-0.9c-0.7,0-1.3,0.4-1.5,0.9"/>
				<path fill="none" stroke="#46210C" stroke-width="0.4589" stroke-linecap="round" stroke-linejoin="round" d="M-93.7,523.2
					c0.2-0.5,0.8-0.9,1.5-0.9c0.7,0,1.3,0.4,1.5,0.9"/>
			</g>
			<g>
				<path fill="#44200D" d="M-102.1,527.7c0,1-0.6,1.8-1.3,1.8c-0.7,0-1.3-0.8-1.3-1.8c0-1,0.6-1.8,1.3-1.8
					C-102.7,525.8-102.1,526.7-102.1,527.7z"/>
				<path fill="#44200D" d="M-91,527.7c0,1-0.6,1.8-1.3,1.8c-0.7,0-1.3-0.8-1.3-1.8c0-1,0.6-1.8,1.3-1.8
					C-91.5,525.8-91,526.7-91,527.7z"/>
			</g>
			<path fill="none" stroke="#C7613B" stroke-width="0.8174" stroke-linecap="round" stroke-linejoin="round" d="M-94.6,533.4
				c0,0-3,2.2-6.4,0"/>
			<g>
				<g>
					<path fill="#D29874" d="M-104.1,530.6c0,1-1,1.9-2.2,1.9c-1.2,0-2.2-0.8-2.2-1.9c0-1,1-1.9,2.2-1.9
						C-105.1,528.7-104.1,529.6-104.1,530.6z"/>
					<path fill="#D39875" d="M-106.3,528.8c1.2,0,2.2,0.8,2.2,1.9c0,1-1,1.9-2.2,1.9c-1.2,0-2.2-0.8-2.2-1.9
						C-108.5,529.6-107.5,528.8-106.3,528.8z"/>
					<path fill="#D49876" d="M-106.3,528.8c1.2,0,2.1,0.8,2.1,1.8c0,1-1,1.8-2.1,1.8c-1.2,0-2.2-0.8-2.2-1.8
						C-108.5,529.6-107.5,528.8-106.3,528.8z"/>
					<path fill="#D59876" d="M-106.3,528.8c1.2,0,2.1,0.8,2.1,1.8c0,1-0.9,1.8-2.1,1.8c-1.2,0-2.1-0.8-2.1-1.8
						C-108.4,529.6-107.5,528.8-106.3,528.8z"/>
					<path fill="#D69877" d="M-106.3,528.9c1.1,0,2.1,0.8,2.1,1.7c0,1-0.9,1.7-2.1,1.7c-1.1,0-2.1-0.8-2.1-1.7
						C-108.4,529.7-107.5,528.9-106.3,528.9z"/>
					<path fill="#D79878" d="M-106.3,528.9c1.1,0,2,0.8,2,1.7c0,0.9-0.9,1.7-2,1.7c-1.1,0-2-0.8-2-1.7
						C-108.4,529.7-107.5,528.9-106.3,528.9z"/>
					<path fill="#D89879" d="M-106.3,528.9c1.1,0,2,0.7,2,1.7c0,0.9-0.9,1.7-2,1.7c-1.1,0-2-0.7-2-1.7
						C-108.3,529.7-107.4,528.9-106.3,528.9z"/>
					<path fill="#D9987A" d="M-106.3,529c1.1,0,1.9,0.7,1.9,1.6c0,0.9-0.9,1.6-1.9,1.6c-1.1,0-1.9-0.7-1.9-1.6
						C-108.3,529.7-107.4,529-106.3,529z"/>
					<path fill="#DA987A" d="M-106.3,529c1,0,1.9,0.7,1.9,1.6c0,0.9-0.8,1.6-1.9,1.6c-1,0-1.9-0.7-1.9-1.6
						C-108.2,529.7-107.4,529-106.3,529z"/>
					<path fill="#DA977B" d="M-106.3,529.1c1,0,1.8,0.7,1.8,1.6c0,0.9-0.8,1.6-1.8,1.6c-1,0-1.9-0.7-1.9-1.6
						C-108.2,529.8-107.4,529.1-106.3,529.1z"/>
					<path fill="#DB977C" d="M-106.3,529.1c1,0,1.8,0.7,1.8,1.5c0,0.8-0.8,1.5-1.8,1.5c-1,0-1.8-0.7-1.8-1.5
						C-108.1,529.8-107.3,529.1-106.3,529.1z"/>
					<path fill="#DC977D" d="M-106.3,529.1c1,0,1.8,0.7,1.8,1.5c0,0.8-0.8,1.5-1.8,1.5c-1,0-1.8-0.7-1.8-1.5
						C-108.1,529.8-107.3,529.1-106.3,529.1z"/>
					<path fill="#DD977E" d="M-106.3,529.2c0.9,0,1.7,0.7,1.7,1.4c0,0.8-0.8,1.4-1.7,1.4c-0.9,0-1.7-0.6-1.7-1.4
						C-108.1,529.8-107.3,529.2-106.3,529.2z"/>
					<path fill="#DE977F" d="M-106.3,529.2c0.9,0,1.7,0.6,1.7,1.4c0,0.8-0.8,1.4-1.7,1.4c-0.9,0-1.7-0.6-1.7-1.4
						C-108,529.8-107.3,529.2-106.3,529.2z"/>
					<path fill="#DF977F" d="M-106.3,529.2c0.9,0,1.6,0.6,1.6,1.4c0,0.8-0.7,1.4-1.6,1.4c-0.9,0-1.6-0.6-1.6-1.4
						C-108,529.9-107.2,529.2-106.3,529.2z"/>
					<path fill="#E09780" d="M-106.3,529.3c0.9,0,1.6,0.6,1.6,1.3c0,0.7-0.7,1.3-1.6,1.3c-0.9,0-1.6-0.6-1.6-1.3
						C-107.9,529.9-107.2,529.3-106.3,529.3z"/>
					<path fill="#E19781" d="M-104.8,530.6c0,0.7-0.7,1.3-1.5,1.3c-0.9,0-1.5-0.6-1.5-1.3c0-0.7,0.7-1.3,1.5-1.3
						C-105.5,529.3-104.8,529.9-104.8,530.6z"/>
				</g>
				<g>
					<path fill="#D29874" d="M-87,530.6c0,1-1,1.9-2.2,1.9c-1.2,0-2.2-0.8-2.2-1.9c0-1,1-1.9,2.2-1.9C-88,528.7-87,529.6-87,530.6z"
						/>
					<path fill="#D39875" d="M-89.3,528.8c1.2,0,2.2,0.8,2.2,1.9c0,1-1,1.9-2.2,1.9c-1.2,0-2.2-0.8-2.2-1.9
						C-91.5,529.6-90.5,528.8-89.3,528.8z"/>
					<path fill="#D49876" d="M-89.3,528.8c1.2,0,2.2,0.8,2.2,1.8c0,1-1,1.8-2.2,1.8c-1.2,0-2.1-0.8-2.1-1.8
						C-91.4,529.6-90.5,528.8-89.3,528.8z"/>
					<path fill="#D59876" d="M-89.3,528.8c1.2,0,2.1,0.8,2.1,1.8c0,1-0.9,1.8-2.1,1.8c-1.2,0-2.1-0.8-2.1-1.8
						C-91.4,529.6-90.4,528.8-89.3,528.8z"/>
					<path fill="#D69877" d="M-89.3,528.9c1.1,0,2.1,0.8,2.1,1.7c0,1-0.9,1.7-2.1,1.7c-1.1,0-2.1-0.8-2.1-1.7
						C-91.3,529.7-90.4,528.9-89.3,528.9z"/>
					<path fill="#D79878" d="M-89.3,528.9c1.1,0,2,0.8,2,1.7c0,0.9-0.9,1.7-2,1.7c-1.1,0-2-0.8-2-1.7
						C-91.3,529.7-90.4,528.9-89.3,528.9z"/>
					<path fill="#D89879" d="M-89.3,528.9c1.1,0,2,0.7,2,1.7c0,0.9-0.9,1.7-2,1.7c-1.1,0-2-0.7-2-1.7
						C-91.2,529.7-90.4,528.9-89.3,528.9z"/>
					<path fill="#D9987A" d="M-89.3,529c1.1,0,1.9,0.7,1.9,1.6c0,0.9-0.9,1.6-1.9,1.6c-1.1,0-1.9-0.7-1.9-1.6
						C-91.2,529.7-90.3,529-89.3,529z"/>
					<path fill="#DA987A" d="M-89.3,529c1,0,1.9,0.7,1.9,1.6c0,0.9-0.8,1.6-1.9,1.6c-1,0-1.9-0.7-1.9-1.6
						C-91.2,529.7-90.3,529-89.3,529z"/>
					<path fill="#DA977B" d="M-89.3,529.1c1,0,1.9,0.7,1.9,1.6c0,0.9-0.8,1.6-1.9,1.6c-1,0-1.8-0.7-1.8-1.6
						C-91.1,529.8-90.3,529.1-89.3,529.1z"/>
					<path fill="#DB977C" d="M-89.3,529.1c1,0,1.8,0.7,1.8,1.5c0,0.8-0.8,1.5-1.8,1.5c-1,0-1.8-0.7-1.8-1.5
						C-91.1,529.8-90.3,529.1-89.3,529.1z"/>
					<path fill="#DC977D" d="M-89.3,529.1c1,0,1.8,0.7,1.8,1.5c0,0.8-0.8,1.5-1.8,1.5c-1,0-1.8-0.7-1.8-1.5
						C-91,529.8-90.2,529.1-89.3,529.1z"/>
					<path fill="#DD977E" d="M-89.3,529.2c0.9,0,1.7,0.7,1.7,1.4c0,0.8-0.8,1.4-1.7,1.4c-0.9,0-1.7-0.6-1.7-1.4
						C-91,529.8-90.2,529.2-89.3,529.2z"/>
					<path fill="#DE977F" d="M-89.3,529.2c0.9,0,1.7,0.6,1.7,1.4c0,0.8-0.8,1.4-1.7,1.4c-0.9,0-1.7-0.6-1.7-1.4
						C-90.9,529.8-90.2,529.2-89.3,529.2z"/>
					<path fill="#DF977F" d="M-89.3,529.2c0.9,0,1.6,0.6,1.6,1.4c0,0.8-0.7,1.4-1.6,1.4c-0.9,0-1.6-0.6-1.6-1.4
						C-90.9,529.9-90.2,529.2-89.3,529.2z"/>
					<path fill="#E09780" d="M-89.3,529.3c0.9,0,1.6,0.6,1.6,1.3c0,0.7-0.7,1.3-1.6,1.3c-0.9,0-1.6-0.6-1.6-1.3
						C-90.8,529.9-90.1,529.3-89.3,529.3z"/>
					<path fill="#E19781" d="M-87.7,530.6c0,0.7-0.7,1.3-1.5,1.3c-0.8,0-1.5-0.6-1.5-1.3c0-0.7,0.7-1.3,1.5-1.3
						C-88.4,529.3-87.7,529.9-87.7,530.6z"/>
				</g>
			</g>
			<g>
				<circle fill="#00A9D9" cx="-110" cy="532.1" r="0.8"/>
				<circle fill="#5FB6E0" cx="-110.2" cy="532" r="0.3"/>
			</g>
			<g>
				<circle fill="#00A9D9" cx="-85.8" cy="532.1" r="0.8"/>
				<circle fill="#5FB6E0" cx="-86" cy="532" r="0.3"/>
			</g>
		</g>
	</g>
</g>
</svg>
